<?xml version="1.0" standalone="no"?>
<!DOCTYPE svg PUBLIC "-//W3C//DTD SVG 20010904//EN"
 "http://www.w3.org/TR/2001/REC-SVG-20010904/DTD/svg10.dtd">
<svg version="1.0" xmlns="http://www.w3.org/2000/svg"
 width="256.000000pt" height="256.000000pt" viewBox="0 0 256.000000 256.000000"
 preserveAspectRatio="xMidYMid meet">
<metadata>
Created by potrace 1.14, written by Peter Selinger 2001-2017
</metadata>
<g transform="translate(0.000000,256.000000) scale(0.100000,-0.100000)"
fill="#000000" stroke="none">
<path d="M935 1988 c-2 -7 -6 -35 -7 -63 l-3 -50 -67 -3 -68 -3 0 -59 0 -60
-60 0 -60 0 0 -60 0 -59 -67 -3 -68 -3 0 -60 0 -60 77 -3 77 -3 3 53 3 53 60
5 60 5 3 57 3 57 57 3 57 3 3 52 3 52 66 3 67 3 -2 70 c0 39 -1 73 -2 78 0 13
-130 8 -135 -5z"/>
<path d="M1555 1947 c-4 -13 -5 -41 -3 -63 l3 -39 67 -3 67 -3 3 -62 3 -62 53
-3 52 -3 0 -60 0 -59 70 0 70 0 0 -60 0 -60 70 0 70 0 0 80 0 79 -67 3 -68 3
-3 58 -3 57 -49 0 -49 0 -3 53 -3 52 -67 3 -67 3 -3 52 -3 52 -67 3 c-64 3
-68 2 -73 -21z"/>
<path d="M847 1584 c-4 -4 -7 -34 -7 -66 l0 -58 140 0 141 0 -3 63 -3 62 -131
3 c-71 1 -133 -1 -137 -4z"/>
<path d="M1497 1584 c-4 -4 -7 -34 -7 -66 l0 -58 135 0 136 0 -3 63 -3 62
-126 3 c-69 1 -128 -1 -132 -4z"/>
<path d="M2330 1215 l0 -74 78 -3 77 -3 3 -72 3 -73 34 0 35 0 0 79 c0 79 0
80 -27 83 -27 3 -28 5 -31 71 l-3 67 -84 0 -85 0 0 -75z"/>
<path d="M98 1088 l-3 -63 -47 -3 -48 -3 0 -85 0 -84 55 0 54 0 3 68 3 67 78
3 77 3 0 79 0 80 -85 0 -84 0 -3 -62z"/>
<path d="M900 1010 l0 -90 405 0 405 0 0 90 0 90 -405 0 -405 0 0 -90z"/>
<path d="M985 298 c-2 -7 -6 -40 -7 -73 l-3 -60 -187 -3 -188 -2 0 -65 0 -65
250 0 251 0 -3 138 -3 137 -53 3 c-36 2 -54 -1 -57 -10z"/>
<path d="M1547 303 c-4 -3 -7 -66 -7 -140 l0 -133 253 2 252 3 0 55 0 55 -190
5 -190 5 -3 78 -3 77 -53 0 c-29 0 -56 -3 -59 -7z"/>
</g>
</svg>
